<?xml version="1.0" encoding="utf-8"?>
<!-- Generator: Adobe Illustrator 18.1.0, SVG Export Plug-In . SVG Version: 6.00 Build 0)  -->
<svg version="1.1" id="Layer_1" xmlns="http://www.w3.org/2000/svg" xmlns:xlink="http://www.w3.org/1999/xlink" x="0px" y="0px"
	 viewBox="0 0 64 64" enable-background="new 0 0 64 64" xml:space="preserve">
<g>
	<path d="M6.2,64c-0.4,0-0.9-0.1-1.3-0.3c-0.8-0.5-1.3-1.3-1.3-2.2V2.6c0-0.9,0.5-1.8,1.3-2.2c0.8-0.5,1.8-0.5,2.6,0l50.9,29.4
		c0.8,0.5,1.3,1.3,1.3,2.2c0,0.9-0.5,1.8-1.3,2.2L7.5,63.7C7.1,63.9,6.6,64,6.2,64L6.2,64z M8.8,7.1v49.8L51.9,32L8.8,7.1z M8.8,7.1
		"/>
</g>
<g>
</g>
<g>
</g>
<g>
</g>
<g>
</g>
<g>
</g>
<g>
</g>
</svg>
