<?xml version="1.0" encoding="utf-8"?>
<!-- Generator: Adobe Illustrator 18.1.0, SVG Export Plug-In . SVG Version: 6.00 Build 0)  -->
<svg version="1.1" id="Layer_1" xmlns="http://www.w3.org/2000/svg" xmlns:xlink="http://www.w3.org/1999/xlink" x="0px" y="0px"
	 viewBox="0 0 64 64" enable-background="new 0 0 64 64" xml:space="preserve">
<g>
	<path d="M49.6,11.4c-8.2,0-14.6,6.6-14.6,14.8c0,8.2,6.7,14.8,14.9,14.8c0.1,0,0.2,0,0.3,0c-3.2,2.6-7.3,4.1-11.7,4.1
		c-2,0-3.7,1.7-3.7,3.7c0,2,1.3,3.7,3.4,3.7c14.5,0,26-11.8,26-26.3v0C64,18.1,57.7,11.4,49.6,11.4L49.6,11.4z M49.6,11.4"/>
	<path d="M14.9,11.4c-8.2,0-14.6,6.6-14.6,14.8C0.3,34.4,7,41,15.1,41c0.1,0,0.2,0,0.3,0c-3.2,2.6-7.3,4.1-11.7,4.1
		c-2,0-3.7,1.7-3.7,3.7c0,2,1.3,3.7,3.4,3.7c14.5,0,26-11.8,26-26.3v0C29.4,18.1,23.1,11.4,14.9,11.4L14.9,11.4z M14.9,11.4"/>
</g>
<g>
</g>
<g>
</g>
<g>
</g>
<g>
</g>
<g>
</g>
<g>
</g>
</svg>
