<?xml version="1.0" encoding="utf-8"?>
<!-- Generator: Adobe Illustrator 18.1.0, SVG Export Plug-In . SVG Version: 6.00 Build 0)  -->
<svg version="1.1" id="Layer_1" xmlns="http://www.w3.org/2000/svg" xmlns:xlink="http://www.w3.org/1999/xlink" x="0px" y="0px"
	 viewBox="0 0 64 64" enable-background="new 0 0 64 64" xml:space="preserve">
<g>
	<g>
		<defs>
			<rect id="SVGID_1_" x="14.5" width="35" height="64"/>
		</defs>
		<clipPath id="SVGID_2_">
			<use xlink:href="#SVGID_1_"  overflow="visible"/>
		</clipPath>
		<path clip-path="url(#SVGID_2_)" d="M47.8-0.1l-8.3,0c-9.3,0-15.4,6.2-15.4,15.7v7.3h-8.3c-0.7,0-1.3,0.6-1.3,1.3v10.5
			c0,0.7,0.6,1.3,1.3,1.3h8.3v26.6c0,0.7,0.6,1.3,1.3,1.3h10.9c0.7,0,1.3-0.6,1.3-1.3V36.1h9.8c0.7,0,1.3-0.6,1.3-1.3l0-10.5
			c0-0.3-0.1-0.7-0.4-0.9c-0.2-0.2-0.6-0.4-0.9-0.4h-9.8v-6.2c0-3,0.7-4.5,4.6-4.5l5.6,0c0.7,0,1.3-0.6,1.3-1.3V1.2
			C49.1,0.5,48.5-0.1,47.8-0.1L47.8-0.1z M47.8-0.1"/>
	</g>
</g>
<g>
</g>
<g>
</g>
<g>
</g>
<g>
</g>
<g>
</g>
<g>
</g>
</svg>
