<?xml version="1.0" encoding="utf-8"?>
<!-- Generator: Adobe Illustrator 18.1.0, SVG Export Plug-In . SVG Version: 6.00 Build 0)  -->
<svg version="1.1" id="Layer_1" xmlns="http://www.w3.org/2000/svg" xmlns:xlink="http://www.w3.org/1999/xlink" x="0px" y="0px"
	 viewBox="0 0 64 64" enable-background="new 0 0 64 64" xml:space="preserve">
<g>
	<g>
		<defs>
			<rect id="SVGID_1_" y="9.4" width="64" height="45.1"/>
		</defs>
		<clipPath id="SVGID_2_">
			<use xlink:href="#SVGID_1_"  overflow="visible"/>
		</clipPath>
		<path clip-path="url(#SVGID_2_)" fill-rule="evenodd" clip-rule="evenodd" d="M62.5,16.6c-0.8-3.4-3.5-5.9-6.9-6.2
			c-7.9-0.9-15.9-0.9-23.8-0.9c-7.9,0-15.9,0-23.8,0.9c-3.3,0.4-6.1,2.9-6.9,6.2C0,21.4,0,26.6,0,31.6c0,5,0,10.2,1.1,15
			C1.9,50,4.7,52.5,8,52.9c7.9,0.9,15.9,0.9,23.8,0.9c7.9,0,15.9,0,23.8-0.9c3.3-0.4,6.1-2.9,6.9-6.2c1.1-4.8,1.1-10.1,1.1-15
			C63.6,26.6,63.6,21.4,62.5,16.6L62.5,16.6z M23.6,41.5v-21C30.3,24,37,27.5,43.8,31C37,34.5,30.3,38,23.6,41.5L23.6,41.5z
			 M23.6,41.5"/>
	</g>
</g>
<g>
</g>
<g>
</g>
<g>
</g>
<g>
</g>
<g>
</g>
<g>
</g>
</svg>
