<?xml version="1.0" encoding="utf-8"?>
<!-- Generator: Adobe Illustrator 18.1.0, SVG Export Plug-In . SVG Version: 6.00 Build 0)  -->
<svg version="1.1" id="Layer_1" xmlns="http://www.w3.org/2000/svg" xmlns:xlink="http://www.w3.org/1999/xlink" x="0px" y="0px"
	 viewBox="0 0 64 64" enable-background="new 0 0 64 64" xml:space="preserve">
<g>
	<g>
		<path d="M17.8,0c1.6,0,3,1.4,3,3v58c0,1.6-1.4,3-3,3c-1.6,0-2.9-1.4-2.9-3V3C14.9,1.4,16.2,0,17.8,0L17.8,0z M17.8,0"/>
		<path d="M46.3,0c1.6,0,2.9,1.4,2.9,3v58c0,1.6-1.3,3-2.9,3c-1.6,0-3-1.4-3-3V3C43.3,1.4,44.6,0,46.3,0L46.3,0z M46.3,0"/>
	</g>
</g>
<g>
</g>
<g>
</g>
<g>
</g>
<g>
</g>
<g>
</g>
<g>
</g>
</svg>
