<?xml version="1.0" encoding="utf-8"?>
<!-- Generator: Adobe Illustrator 18.1.0, SVG Export Plug-In . SVG Version: 6.00 Build 0)  -->
<svg version="1.1" id="Layer_1" xmlns="http://www.w3.org/2000/svg" xmlns:xlink="http://www.w3.org/1999/xlink" x="0px" y="0px"
	 viewBox="0 0 64 64" enable-background="new 0 0 64 64" xml:space="preserve">
<g>
	<path d="M39.2,0c4.3,0,6.4,2.9,6.4,6.3c0,4.2-3.7,8-8.6,8c-4.1,0-6.4-2.4-6.3-6.4C30.7,4.6,33.5,0,39.2,0L39.2,0z M26,64
		c-3.4,0-5.9-2.1-3.5-11.3l3.9-16.3c0.7-2.6,0.8-3.7,0-3.7c-1,0-5.4,1.8-8,3.6l-1.7-2.8c8.2-7,17.7-11.1,21.8-11.1
		c3.4,0,3.9,4.1,2.3,10.3l-4.4,17.1c-0.8,3-0.5,4.1,0.3,4.1c1,0,4.3-1.3,7.6-3.9l1.9,2.6C38.1,60.9,29.4,64,26,64L26,64z M26,64"/>
</g>
<g>
</g>
<g>
</g>
<g>
</g>
<g>
</g>
<g>
</g>
<g>
</g>
</svg>
