<?xml version="1.0" encoding="utf-8"?>
<!-- Generator: Adobe Illustrator 18.1.0, SVG Export Plug-In . SVG Version: 6.00 Build 0)  -->
<svg version="1.1" id="Layer_1" xmlns="http://www.w3.org/2000/svg" xmlns:xlink="http://www.w3.org/1999/xlink" x="0px" y="0px"
	 viewBox="0 0 64 64" enable-background="new 0 0 64 64" xml:space="preserve">
<g>
	<rect x="0.8" y="20.3" width="13.7" height="41.3"/>
	<path d="M59.7,24.1c-2.9-3.2-6.7-4.7-11.5-4.7c-1.7,0-3.3,0.2-4.8,0.6c-1.4,0.4-2.6,1-3.6,1.8c-1,0.8-1.8,1.5-2.4,2.2
		c-0.6,0.6-1.1,1.4-1.6,2.2v-5.9H22.1l0,2c0,1.3,0,5.4,0,12.3c0,6.9,0,15.9-0.1,27h13.7v-23c0-1.4,0.2-2.5,0.5-3.4
		c0.6-1.4,1.5-2.6,2.6-3.6c1.2-1,2.6-1.4,4.4-1.4c2.4,0,4.1,0.8,5.3,2.5c1.1,1.7,1.7,3.9,1.7,6.9v22.1H64V37.9
		C64,31.8,62.6,27.2,59.7,24.1L59.7,24.1z M59.7,24.1"/>
	<path d="M7.8,0.4c-2.3,0-4.2,0.7-5.6,2C0.7,3.8,0,5.5,0,7.5c0,2,0.7,3.7,2.1,5.1c1.4,1.4,3.2,2,5.5,2h0.1c2.3,0,4.2-0.7,5.6-2
		c1.4-1.4,2.1-3.1,2.1-5.1c0-2.1-0.7-3.8-2.1-5.1C11.9,1.1,10.1,0.4,7.8,0.4L7.8,0.4z M7.8,0.4"/>
</g>
<g>
</g>
<g>
</g>
<g>
</g>
<g>
</g>
<g>
</g>
<g>
</g>
</svg>
